<svg width="714" height="499" xmlns="http://www.w3.org/2000/svg" xmlns:xlink="http://www.w3.org/1999/xlink" overflow="hidden"><g transform="translate(-283 -79)"><path d="M500.5 328.5C500.5 191.533 611.533 80.5001 748.5 80.5001 885.467 80.5001 996.5 191.533 996.5 328.5 996.5 465.467 885.467 576.5 748.5 576.5 611.533 576.5 500.5 465.467 500.5 328.5Z" stroke="#172C51" stroke-width="1.33333" stroke-miterlimit="8" fill="#FFC000" fill-rule="evenodd" fill-opacity="0.74902"/><path d="M284.5 343C284.5 233.372 373.372 144.5 483 144.5 592.629 144.5 681.5 233.372 681.5 343 681.5 452.629 592.629 541.5 483 541.5 373.372 541.5 284.5 452.629 284.5 343Z" stroke="#000000" stroke-width="1.33333" stroke-miterlimit="8" fill="#00B050" fill-rule="evenodd" fill-opacity="0.74902"/><text font-family="Cambria Math,Cambria Math_MSFontService,sans-serif" font-weight="400" font-size="88" transform="translate(714.605 194)">ℝ</text><text font-family="Cambria Math,Cambria Math_MSFontService,sans-serif" font-weight="400" font-size="59" transform="translate(438.324 203)">𝕄</text><text font-family="Cascadia Code,Cascadia Code_MSFontService,sans-serif" font-weight="400" font-size="27" transform="translate(492.487 215)">k</text><text font-family="Cascadia Code,Cascadia Code_MSFontService,sans-serif" font-weight="400" font-size="27" transform="translate(508.154 215)"></text><text font-family="Cambria Math,Cambria Math_MSFontService,sans-serif" font-weight="400" font-size="59" transform="translate(557.944 347)">𝕃</text><text font-family="Cascadia Code,Cascadia Code_MSFontService,sans-serif" font-weight="400" font-size="27" transform="translate(596.915 359)">k</text><text font-family="Cascadia Code,Cascadia Code_MSFontService,sans-serif" font-weight="400" font-size="27" transform="translate(612.581 359)"></text><text font-family="Cambria Math,Cambria Math_MSFontService,sans-serif" font-weight="400" font-size="59" transform="translate(798.844 346)">ℕ</text><text font-family="Cascadia Code,Cascadia Code_MSFontService,sans-serif" font-weight="400" font-size="27" transform="translate(837.815 357)">k</text><text font-family="Cascadia Code,Cascadia Code_MSFontService,sans-serif" font-weight="400" font-size="27" transform="translate(853.481 357)"></text></g></svg>