<svg width="796" height="638" xmlns="http://www.w3.org/2000/svg" xmlns:xlink="http://www.w3.org/1999/xlink" overflow="hidden"><g transform="translate(-242 -43)"><path d="M243.479 253.187C243.479 155.051 323.166 75.496 421.464 75.496L859.494 75.496C957.792 75.496 1037.48 155.051 1037.48 253.187L1037.48 501.805C1037.48 599.941 957.792 679.496 859.494 679.496L421.464 679.496C323.166 679.496 243.479 599.941 243.479 501.805Z" stroke="#172C51" stroke-width="1.33333" stroke-miterlimit="8" fill="#FFC000" fill-rule="evenodd" fill-opacity="0.74902"/><path d="M261.479 414.996C261.479 276.097 394.675 163.496 558.979 163.496 723.284 163.496 856.479 276.097 856.479 414.996 856.479 553.896 723.284 666.496 558.979 666.496 394.675 666.496 261.479 553.896 261.479 414.996Z" stroke="#000000" stroke-width="1.33333" stroke-miterlimit="8" fill="#00B0F0" fill-rule="evenodd" fill-opacity="0.65098"/><text font-family="Cambria Math,Cambria Math_MSFontService,sans-serif" font-weight="400" font-size="88" transform="translate(641.852 156)">ℝ</text><text font-family="Cambria Math,Cambria Math_MSFontService,sans-serif" font-weight="400" font-size="59" transform="translate(861.7 210)">ℕ</text><text font-family="Cascadia Code,Cascadia Code_MSFontService,sans-serif" font-weight="400" font-size="27" transform="translate(905.3 218)">k</text><text font-family="Cascadia Code,Cascadia Code_MSFontService,sans-serif" font-weight="400" font-size="27" transform="translate(921.133 218)"></text><text font-family="Cascadia Code,Cascadia Code_MSFontService,sans-serif" font-weight="400" font-size="27" transform="translate(921.134 218)">+</text><text font-family="Cascadia Code,Cascadia Code_MSFontService,sans-serif" font-weight="400" font-size="27" transform="translate(936.967 218)"></text><text font-family="Cascadia Code,Cascadia Code_MSFontService,sans-serif" font-weight="400" font-size="27" transform="translate(936.967 218)">1</text><text font-family="Cascadia Code,Cascadia Code_MSFontService,sans-serif" font-weight="400" font-size="27" transform="translate(952.8 218)"></text><text font-family="Cambria Math,Cambria Math_MSFontService,sans-serif" font-weight="400" font-size="59" transform="translate(538.632 220)">𝕃</text><text font-family="Cascadia Code,Cascadia Code_MSFontService,sans-serif" font-weight="400" font-size="27" transform="translate(577.603 232)">k+1</text><text font-family="Cascadia Code,Cascadia Code_MSFontService,sans-serif" font-weight="400" font-size="27" transform="translate(625.103 232)"></text><path d="M288.479 425.996C288.479 316.368 391.678 227.496 518.979 227.496 646.281 227.496 749.479 316.368 749.479 425.996 749.479 535.625 646.281 624.496 518.979 624.496 391.678 624.496 288.479 535.625 288.479 425.996Z" stroke="#000000" stroke-width="1.33333" stroke-miterlimit="8" fill="#92D050" fill-rule="evenodd" fill-opacity="0.65098"/><text font-family="Cambria Math,Cambria Math_MSFontService,sans-serif" font-weight="400" font-size="59" transform="translate(488.509 299)">𝕃</text><text font-family="Cascadia Code,Cascadia Code_MSFontService,sans-serif" font-weight="400" font-size="27" transform="translate(527.48 311)">k</text><text font-family="Cascadia Code,Cascadia Code_MSFontService,sans-serif" font-weight="400" font-size="27" transform="translate(543.313 311)"></text><text font-family="Cambria Math,Cambria Math_MSFontService,sans-serif" font-weight="400" font-size="59" transform="matrix(0.983521 -0.180796 0.180796 0.983521 701.218 221)">ℕ</text><text font-family="Cascadia Code,Cascadia Code_MSFontService,sans-serif" font-weight="400" font-size="27" transform="matrix(0.983521 -0.180796 0.180796 0.983521 742.113 226)">k</text><text font-family="Cascadia Code,Cascadia Code_MSFontService,sans-serif" font-weight="400" font-size="27" transform="matrix(0.983521 -0.180796 0.180796 0.983521 757.685 223)"></text><text font-family="Cambria Math,Cambria Math_MSFontService,sans-serif" font-weight="400" font-size="59" transform="translate(749.893 479)">𝕊</text><text font-family="Cascadia Code,Cascadia Code_MSFontService,sans-serif" font-weight="400" font-size="27" transform="translate(786.093 491)">k</text><text font-family="Cascadia Code,Cascadia Code_MSFontService,sans-serif" font-weight="400" font-size="27" transform="translate(801.926 491)">+</text><text font-family="Cascadia Code,Cascadia Code_MSFontService,sans-serif" font-weight="400" font-size="27" transform="translate(817.76 491)">1</text><text font-family="Cascadia Code,Cascadia Code_MSFontService,sans-serif" font-weight="400" font-size="27" transform="translate(833.593 491)"></text></g></svg>